<svg width="166" height="52" viewBox="0 0 166 52" fill="none" xmlns="http://www.w3.org/2000/svg">
<path fill-rule="evenodd" clip-rule="evenodd" d="M25.6583 35.0637V10.4638H32.9816V35.0637H25.6583ZM29.3086 8.21918C28.2656 8.21918 27.3738 7.84886 26.6332 7.10822C25.9077 6.35246 25.5449 5.45311 25.5449 4.41016C25.5449 3.38233 25.9077 2.49053 26.6332 1.73477C27.3738 0.979015 28.2656 0.601135 29.3086 0.601135C30.3666 0.601135 31.2584 0.979015 31.984 1.73477C32.7095 2.49053 33.0722 3.38233 33.0722 4.41016C33.0722 5.45311 32.7095 6.35246 31.984 7.10822C31.2584 7.84886 30.3666 8.21918 29.3086 8.21918ZM7.81932 35.0637L0.609375 2.34694H8.45415L12.6713 27.2416H12.8073L17.0018 2.34694H24.8919L17.6593 35.0637H7.81932ZM45.3563 34.905C46.0668 35.2225 46.8905 35.3812 47.8277 35.3812C49.3845 35.3812 50.7071 34.9277 51.7954 34.0208C52.8988 33.1139 53.7453 31.7308 54.3348 29.8717C54.9243 27.9974 55.219 25.6168 55.219 22.7298V22.6844C55.219 19.8125 54.9243 17.447 54.3348 15.5878C53.7453 13.7136 52.9064 12.323 51.8181 11.416C50.7449 10.494 49.445 10.033 47.9184 10.033C46.9057 10.033 46.0365 10.2219 45.311 10.5998C44.5855 10.9626 43.9809 11.4463 43.4972 12.0509C43.0135 12.6404 42.6356 13.2828 42.3635 13.9781H42.2048V2.34694H34.9042V35.0637H42.2048V31.4361H42.3635C42.6356 32.2372 43.0211 32.9325 43.5199 33.522C44.0338 34.1115 44.6459 34.5725 45.3563 34.905ZM46.49 28.4433C46.0819 28.9119 45.5755 29.1461 44.9709 29.1461C44.3663 29.1461 43.8599 28.9119 43.4518 28.4433C43.0437 27.9747 42.7339 27.2719 42.5223 26.3347C42.3106 25.3976 42.2048 24.2186 42.2048 22.7978V22.7751C42.2048 21.3089 42.3106 20.0997 42.5223 19.1475C42.7339 18.1801 43.0437 17.4621 43.4518 16.9935C43.8599 16.5099 44.3663 16.268 44.9709 16.268C45.5755 16.268 46.0819 16.5099 46.49 16.9935C46.9132 17.4621 47.2306 18.1725 47.4422 19.1248C47.669 20.077 47.7823 21.2787 47.7823 22.7298V22.7751C47.7823 24.1959 47.669 25.3825 47.4422 26.3347C47.2306 27.2719 46.9132 27.9747 46.49 28.4433ZM56.6202 35.0637V10.4638H63.9208V14.6129H64.0795C64.3516 12.8898 64.8655 11.6957 65.6213 11.0306C66.377 10.3655 67.2915 10.033 68.3647 10.033C68.7123 10.033 69.0297 10.0632 69.3169 10.1237C69.6192 10.169 69.9064 10.2371 70.1785 10.3278V16.9029C69.846 16.7668 69.4983 16.661 69.1356 16.5854C68.7879 16.5099 68.4176 16.4721 68.0246 16.4721C67.1026 16.4721 66.3392 16.6912 65.7346 17.1296C65.13 17.5679 64.6766 18.2179 64.3743 19.0794C64.072 19.9259 63.9208 20.9613 63.9208 22.1856V35.0637H56.6202ZM74.7085 34.1568C76.2352 35.1091 78.0716 35.5852 80.218 35.5852C82.3795 35.5852 84.216 35.1091 85.7275 34.1568C87.239 33.1895 88.3878 31.7611 89.1737 29.8717C89.9748 27.9672 90.3754 25.6092 90.3754 22.7978V22.7524C90.3754 20.0015 89.9673 17.6813 89.1511 15.7919C88.35 13.9025 87.1861 12.4741 85.6595 11.5067C84.1328 10.5243 82.319 10.033 80.218 10.033C78.1019 10.033 76.2805 10.5243 74.7539 11.5067C73.2423 12.4741 72.0785 13.91 71.2623 15.8146C70.446 17.704 70.0379 20.0166 70.0379 22.7524V22.7978C70.0379 25.6092 70.4385 27.9672 71.2396 29.8717C72.0407 31.7611 73.197 33.1895 74.7085 34.1568ZM81.7144 29.0555C81.3063 29.524 80.8075 29.7583 80.218 29.7583C79.6285 29.7583 79.1221 29.524 78.6989 29.0555C78.2908 28.5718 77.9809 27.8236 77.7693 26.8109C77.5728 25.783 77.4746 24.4529 77.4746 22.8204V22.7751C77.4746 21.1578 77.5728 19.8428 77.7693 18.83C77.9809 17.8173 78.2908 17.0691 78.6989 16.5854C79.1221 16.1018 79.6285 15.8599 80.218 15.8599C80.8075 15.8599 81.3063 16.1018 81.7144 16.5854C82.1225 17.0691 82.4324 17.8173 82.644 18.83C82.8556 19.8428 82.9614 21.1578 82.9614 22.7751V22.8204C82.9614 24.4529 82.8556 25.783 82.644 26.8109C82.4475 27.8236 82.1376 28.5718 81.7144 29.0555ZM91.9126 35.0637V2.34694H102.773C105.04 2.34694 106.93 2.73993 108.441 3.52592C109.953 4.2968 111.086 5.43799 111.842 6.94951C112.598 8.46103 112.976 10.3126 112.976 12.5043V12.5724C112.976 14.7036 112.598 16.5476 111.842 18.1045C111.086 19.6463 110.043 20.795 108.713 21.5508L113.588 35.0637H105.607L101.594 23.1605H101.276H101.027H99.4853V35.0637H99.3511V44.1118C99.3511 44.2775 99.2167 44.4118 99.0511 44.4118C98.8854 44.4118 98.7511 44.2775 98.7511 44.1118V35.0637H97.0612V48.9331C97.1901 49.0792 97.2756 49.2223 97.2756 49.3296C97.2756 49.5324 97.3947 49.725 97.521 49.9292C97.6636 50.1596 97.8153 50.4049 97.8153 50.6966C97.8153 51.4165 97.2811 51.751 96.5612 51.751C95.8413 51.751 95.2577 51.1674 95.2577 50.4475C95.2577 50.2208 95.4064 49.9374 95.5401 49.6828C95.6126 49.5449 95.6806 49.4154 95.7181 49.3079C95.8891 48.8178 95.8699 48.5592 95.8598 48.4235C95.8502 48.2938 95.8489 48.2763 96.0299 48.2763C96.0399 48.2763 96.0504 48.2768 96.0612 48.2779V35.0637H95.8128L95.9728 35.0652L95.9072 42.0666C95.9021 42.6189 95.4502 43.0624 94.8979 43.0572C94.3456 43.052 93.9022 42.6001 93.9073 42.0479L93.9728 35.0637H93.8201V46.1917C93.8201 46.385 93.6634 46.5417 93.4701 46.5417C93.2768 46.5417 93.1201 46.385 93.1201 46.1917V38.7766C93.0298 38.8656 92.9058 38.9206 92.769 38.9206C92.6175 38.9206 92.4818 38.8532 92.3901 38.7468V43.4077C92.3901 43.5181 92.3006 43.6077 92.1901 43.6077C92.0796 43.6077 91.9901 43.5181 91.9901 43.4077V35.0637H91.9126ZM99.4853 17.7191H101.685C102.894 17.7191 103.786 17.3412 104.36 16.5854C104.949 15.8146 105.244 14.628 105.244 13.0258V12.9805C105.244 11.3934 104.949 10.2144 104.36 9.44351C103.77 8.67264 102.886 8.2872 101.707 8.2872H99.4853V17.7191ZM118.118 37.0816C119.569 38.0188 121.315 38.4873 123.355 38.4873C124.761 38.4873 126 38.2833 127.074 37.8752C128.162 37.4519 129.076 36.87 129.817 36.1294C130.558 35.3887 131.14 34.5347 131.563 33.5673C132.001 32.6 132.273 31.5495 132.379 30.4158L132.424 29.917H125.872L125.827 30.2344C125.736 30.7937 125.592 31.2849 125.396 31.7082C125.199 32.1163 124.935 32.4337 124.602 32.6604C124.285 32.872 123.899 32.9778 123.446 32.9778C122.902 32.9778 122.433 32.7813 122.04 32.3884C121.662 31.9802 121.368 31.353 121.156 30.5065C120.973 29.7192 120.875 28.7291 120.863 27.5364H132.583V25.3825C132.583 22.692 131.472 18.558 131.472 18.558C131.472 18.558 129.681 15.2931 128.275 14.3408C126.885 13.3735 125.199 12.8898 123.219 12.8898C121.209 12.8898 119.486 13.3659 118.05 14.3182C116.629 15.2553 115.541 16.6686 114.785 18.558C114.557 19.1288 114.363 19.4775 114.203 19.7641L114.203 19.7642L114.203 19.7642C113.835 20.4263 113.651 20.7573 113.651 22.7298V25.6545C113.651 28.5264 114.029 30.9146 114.785 32.8191C115.556 34.7236 116.667 36.1445 118.118 37.0816ZM120.869 23.0925H125.704C125.677 22.1717 125.581 21.3857 125.418 20.7346C125.237 19.9486 124.965 19.3591 124.602 18.9661C124.239 18.558 123.801 18.3539 123.287 18.3539C122.773 18.3539 122.335 18.558 121.972 18.9661C121.609 19.3591 121.33 19.9561 121.133 20.7572C120.983 21.4067 120.895 22.1851 120.869 23.0925ZM142.555 48.554C140.605 48.554 138.919 48.2366 137.498 47.6018C136.093 46.9669 135.004 46.0676 134.234 44.9037C133.478 43.7399 133.085 42.3568 133.055 40.7546V40.3012H140.106V40.936C140.136 41.7673 140.348 42.3795 140.741 42.7725C141.134 43.1655 141.693 43.362 142.418 43.362C142.842 43.362 143.204 43.2864 143.507 43.1352C143.824 42.9841 144.066 42.78 144.232 42.5231C144.399 42.251 144.482 41.9336 144.482 41.5708V41.5482C144.482 40.9435 144.27 40.4296 143.847 40.0064C143.439 39.5832 142.743 39.1902 141.761 38.8274L139.403 38.0339C138.073 37.5502 136.969 36.9683 136.093 36.2881C135.216 35.5928 134.566 34.7841 134.143 33.8621C133.72 32.9401 133.508 31.8896 133.508 30.7106V30.6652C133.508 29.1839 133.886 27.8765 134.642 26.7428C135.413 25.5941 136.471 24.7023 137.816 24.0674C139.176 23.4175 140.756 23.0925 142.555 23.0925C144.338 23.0925 145.88 23.4175 147.18 24.0674C148.48 24.7174 149.485 25.6168 150.195 26.7655C150.906 27.9143 151.268 29.2444 151.284 30.7559V31.3681H144.686V30.8013C144.671 30.0153 144.474 29.4031 144.096 28.9648C143.733 28.5264 143.227 28.3073 142.577 28.3073C142.154 28.3073 141.791 28.3828 141.489 28.534C141.202 28.67 140.975 28.8816 140.809 29.1688C140.658 29.4409 140.582 29.7583 140.582 30.1211V30.1664C140.582 30.5443 140.665 30.8844 140.831 31.1867C141.013 31.4739 141.292 31.7384 141.67 31.9802C142.048 32.207 142.562 32.4413 143.212 32.6831L145.57 33.4766C147.762 34.2778 149.341 35.2602 150.309 36.4241C151.276 37.5729 151.76 39.0466 151.76 40.8453V40.868C151.76 42.4248 151.382 43.7776 150.626 44.9264C149.87 46.0751 148.797 46.9669 147.406 47.6018C146.031 48.2366 144.414 48.554 142.555 48.554ZM156.267 41.004C157.582 42.1679 159.509 42.7498 162.049 42.7498C162.638 42.7498 163.19 42.712 163.704 42.6364C164.233 42.576 164.701 42.4929 165.109 42.387V37.0589C164.958 37.0741 164.8 37.0892 164.633 37.1043C164.482 37.1194 164.316 37.127 164.134 37.127C163.243 37.127 162.608 36.9456 162.23 36.5828C161.852 36.2049 161.663 35.5399 161.663 34.5876V23.3646H165.041V17.7191H161.663V11.9829H154.294V17.7191H151.755V23.3646H154.294V35.2451C154.294 37.9054 154.952 39.825 156.267 41.004Z" fill="url(#paint0_linear_1_171)"/>
<defs>
<linearGradient id="paint0_linear_1_171" x1="82.8594" y1="0.601135" x2="82.8594" y2="51.751" gradientUnits="userSpaceOnUse">
<stop stop-color="white"/>
<stop offset="0.380208" stop-color="#FF6C00"/>
<stop offset="0.71875" stop-color="#9A1F95"/>
</linearGradient>
</defs>
</svg>
